<svg xmlns="http://www.w3.org/2000/svg" viewBox="0 0 23.01 33.31"><defs><style>.cls-1{fill:#834ac8;}.cls-2{fill:#fff;}</style></defs><g id="Layer_2" data-name="Layer 2"><g id="Layer_1-2" data-name="Layer 1"><path class="cls-1" d="M11,32.67a.85.85,0,0,1-1.2-.11C8,30.3,1.75,22.53,1.21,17.87.57,12.37-1.29,6.7,4.87,2.2S19,2.87,20,5.87s4,5,1.67,11C19.48,22.51,15.59,28.91,11,32.67Z"/><path class="cls-2" d="M10.49,33.31a1.29,1.29,0,0,1-1-.46C7.59,30.55,1.32,22.69.77,17.92.69,17.2.58,16.46.48,15.74-.23,10.91-.95,5.91,4.61,1.85A10.11,10.11,0,0,1,13.86.57c3.42,1.09,6,3.48,6.6,5.16a13.75,13.75,0,0,0,1,2.1c1.17,2.11,2.48,4.51.67,9.15-2,5.08-5.87,12-10.8,16A1.3,1.3,0,0,1,10.49,33.31ZM10.3.87A8.59,8.59,0,0,0,5.13,2.56C0,6.31.65,10.83,1.35,15.62c.1.72.21,1.46.3,2.2C2.17,22.35,8.31,30,10.18,32.28a.4.4,0,0,0,.58,0h0c4.8-4,8.59-10.7,10.54-15.67,1.66-4.26.5-6.37-.62-8.41A14,14,0,0,1,19.62,6c-.48-1.44-2.92-3.61-6-4.6A10.9,10.9,0,0,0,10.3.87Z"/><path class="cls-2" d="M9.56,15.34S5.15,13.09,7.19,10s4.74-3.88,6.24-2.05S16,13.3,15.16,14.16,11.39,16.74,9.56,15.34Z"/></g></g></svg>